<?xml version="1.0" encoding="utf-8"?>
<svg version="1.1" id="Layer_1" xmlns="http://www.w3.org/2000/svg" xmlns:xlink="http://www.w3.org/1999/xlink" x="0px" y="0px"
	 width="160px" height="90px" xml:space="preserve">
<style type="text/css">
	.st0{fill:#00BDFF;}
	.st1{fill:#FFFFFF;}
	.st2{fill:#FFF100;}
</style>
<g>
	<path class="st0" d="M30.44,46.17v-0.31c0-3.42-2.77-6.19-6.19-6.19h-5.89c-3.42,0-6.19,2.77-6.19,6.19c0,3.42,2.77,6.19,6.19,6.19
		h5.89c1.46,0,2.64,1.18,2.64,2.64c0,1.45-1.18,2.64-2.64,2.64h-5.89c-1.46,0-2.64-1.18-2.64-2.64V54.4h-3.55v0.31
		c0,3.42,2.77,6.19,6.19,6.19h5.89c3.42,0,6.19-2.77,6.19-6.19c0-3.42-2.77-6.19-6.19-6.19h-5.89c-1.46,0-2.64-1.18-2.64-2.64
		c0-1.46,1.18-2.64,2.64-2.64h5.89c1.46,0,2.64,1.18,2.64,2.64v0.31H30.44z"/>
	<path class="st0" d="M59.57,63.22c-1.46,0-2.64-1.18-2.64-2.64V30.85h-3.55v29.74c0,3.42,2.77,6.19,6.19,6.19h0.3v-3.55H59.57z"/>
	<path class="st0" d="M144.62,39.68v0.31V54.7c0,1.46-1.18,2.64-2.64,2.64c-1.46,0-2.64-1.18-2.64-2.64v-9.13h-3.55v9.13v0
		c0,1.45-1.18,2.63-2.64,2.64c-1.46,0-2.64-1.18-2.64-2.64V39.68h-3.55V54.7c0,3.42,2.77,6.19,6.19,6.19c1.73,0,3.29-0.72,4.42-1.86
		c1.12,1.14,2.68,1.86,4.41,1.86c3.42,0,6.19-2.77,6.19-6.19V39.68H144.62z"/>
	<path class="st0" d="M73.98,39.68v0.31v11.77c0,1.54-0.62,2.93-1.64,3.95c-1.01,1.01-2.4,1.63-3.95,1.63
		c-1.54,0-2.94-0.62-3.95-1.63c-1.01-1.01-1.64-2.4-1.64-3.95V39.68h-3.55v12.08c0,5.04,4.09,9.13,9.13,9.13
		c2.1,0,4.04-0.72,5.58-1.91v1.91h3.55V39.68H73.98z"/>
	<path class="st0" d="M115.49,39.68c-5.05,0-9.14,4.09-9.14,9.13v2.94c0,5.04,4.09,9.13,9.14,9.13c5.04,0,9.13-4.09,9.13-9.13v-2.94
		C124.63,43.77,120.54,39.68,115.49,39.68 M121.07,51.76c0,1.54-0.62,2.93-1.63,3.95c-1.01,1.01-2.4,1.63-3.95,1.63
		c-1.54,0-2.94-0.62-3.95-1.63c-1.01-1.01-1.64-2.4-1.64-3.95v-2.94c0-1.54,0.63-2.93,1.64-3.95c1.01-1.01,2.4-1.63,3.95-1.63
		c1.54,0,2.94,0.62,3.95,1.63c1.01,1.01,1.63,2.4,1.63,3.95V51.76z"/>
	<path class="st0" d="M106.66,63.22c-1.46,0-2.64-1.18-2.64-2.64V30.85h-3.55v29.74c0,3.42,2.77,6.19,6.19,6.19h0.3v-3.55H106.66z"
		/>
	<path class="st1" d="M78.7,4.36c-13.98,0-25.32,11.34-25.32,25.32v0.3h3.55v-0.3c0-6.01,2.44-11.45,6.38-15.39
		c3.94-3.94,9.38-6.38,15.39-6.38c6.01,0,11.45,2.44,15.39,6.38c3.94,3.94,6.38,9.38,6.38,15.39v0.3h3.55v-0.3
		C104.02,15.7,92.68,4.36,78.7,4.36"/>
	<path class="st1" d="M52.39,36.54c-2.16-1.06-4.13-2.47-5.82-4.16l0,0l0,0l-0.33-0.32l0,0l0,0c-4.55-4.39-10.75-7.09-17.57-7.09
		c-13.99,0-25.32,11.34-25.32,25.32c0,9.11,7.38,16.49,16.49,16.49h12.08v-3.55H19.83c-3.57,0-6.81-1.45-9.15-3.79
		c-2.34-2.34-3.79-5.58-3.79-9.15c0-6.01,2.44-11.45,6.38-15.39c3.94-3.94,9.38-6.38,15.39-6.38c6.01,0,11.45,2.44,15.39,6.38
		l0.22,0.22l0.22,0.21l0.01-0.01c2.2,2.1,4.78,3.81,7.62,5.02l0.42,0.18v-3.88L52.39,36.54z"/>
	<path class="st1" d="M131.68,24.96c-6.82,0-13.02,2.7-17.57,7.09l-0.33,0.33h0l0,0c-2.4,2.4-5.37,4.25-8.68,5.32l-0.21,0.07v3.7
		l0.39-0.11c4.02-1.14,7.63-3.24,10.57-6.04l0.01,0.01l0.44-0.43l0,0c3.94-3.94,9.38-6.38,15.39-6.38c6.01,0,11.45,2.44,15.39,6.38
		c3.94,3.94,6.38,9.38,6.38,15.39c0,3.57-1.45,6.81-3.79,9.15c-2.34,2.34-5.58,3.79-9.15,3.79h-32.68v3.55h32.68
		c9.11,0,16.49-7.39,16.49-16.49C157,36.3,145.66,24.96,131.68,24.96"/>
	<path class="st1" d="M102.43,66.23c-0.97-0.73-1.74-1.7-2.23-2.82l-0.08-0.18h-0.2H60.74v3.55h42.42L102.43,66.23z"/>
	<path class="st1" d="M55.34,66.23c-0.97-0.73-1.74-1.7-2.23-2.82l-0.08-0.18h-0.2H37.19v3.55h18.88L55.34,66.23z"/>
	<path class="st2" d="M41.91,39.68c-2.1,0-4.04,0.72-5.58,1.91v-1.91h-3.55v9.13v2.94v20.91h2.33l-2.48,5.89h1.8h0.76l-3.02,6.93
		L42.65,75h-5.06l4.75-5.59l-0.24-0.22l-0.09-0.08h-3.34h-0.61h-1.74V58.98c1.54,1.2,3.48,1.91,5.58,1.91
		c5.05,0,9.13-4.09,9.13-9.13v-2.94C51.04,43.77,46.96,39.68,41.91,39.68 M41.91,57.34c-3.08,0-5.58-2.5-5.58-5.58v-2.95
		c0-1.54,0.62-2.94,1.63-3.95c1.01-1.01,2.4-1.63,3.95-1.63c1.54,0,2.94,0.62,3.95,1.63c1.01,1.01,1.64,2.4,1.64,3.95v2.94
		c0,1.54-0.63,2.93-1.64,3.95C44.85,56.71,43.45,57.34,41.91,57.34"/>
	<path class="st2" d="M78.7,10.25h-0.3v3.55h0.3c4.39,0,8.36,1.78,11.23,4.65c2.87,2.87,4.65,6.84,4.65,11.23v11.91
		c-1.54-1.2-3.48-1.91-5.58-1.91c-5.04,0-9.13,4.09-9.13,9.13v2.94v0c0,5.04,4.09,9.13,9.13,9.13c2.1,0,4.04-0.72,5.58-1.91v1.91
		h3.55v-9.13v0v-2.94V29.68C98.14,18.95,89.44,10.25,78.7,10.25 M94.58,51.76L94.58,51.76c0,1.54-0.62,2.94-1.64,3.95
		c-1.01,1.01-2.4,1.63-3.95,1.63c-1.54,0-2.94-0.62-3.95-1.63c-1.01-1.01-1.63-2.4-1.63-3.95v0v-2.94c0-1.54,0.62-2.93,1.63-3.95
		c1.01-1.01,2.4-1.63,3.95-1.63c3.08,0,5.58,2.5,5.58,5.58V51.76z"/>
</g>
</svg>
