<?xml version="1.0" encoding="utf-8"?>
<!-- Generator: Adobe Illustrator 26.4.1, SVG Export Plug-In . SVG Version: 6.00 Build 0)  -->
<svg version="1.1" id="Layer_1" xmlns="http://www.w3.org/2000/svg" xmlns:xlink="http://www.w3.org/1999/xlink" x="0px" y="0px"
	 width="320px" height="180px"  xml:space="preserve">
<style type="text/css">
	.st0{fill:#41B9EA;}
	.st1{fill:#FFFFFF;}
	.st2{fill:#FCEE1F;}
</style>
<g>
	<path class="st0" d="M65.07,92.34v-0.58c0-6.52-5.29-11.81-11.81-11.81H42.04c-6.52,0-11.81,5.29-11.81,11.81
		s5.28,11.81,11.81,11.81h11.23c2.78,0,5.03,2.25,5.03,5.03c0,2.77-2.25,5.03-5.03,5.03H42.04c-2.78,0-5.03-2.26-5.03-5.03v-0.58
		h-6.77v0.58c0,6.52,5.28,11.81,11.81,11.81h11.23c6.52,0,11.81-5.29,11.81-11.81c0-6.53-5.29-11.81-11.81-11.81H42.04
		c-2.78,0-5.03-2.25-5.03-5.03c0.01-2.78,2.26-5.03,5.03-5.03h11.23c2.78,0,5.03,2.25,5.03,5.03v0.58H65.07z"/>
	<path class="st0" d="M120.62,124.85c-2.78,0-5.03-2.25-5.03-5.03V63.11h-6.77v56.71c0,6.52,5.28,11.81,11.81,11.81h0.58v-6.78
		H120.62z"/>
	<path class="st0" d="M282.81,79.95v0.58v28.06c-0.01,2.78-2.25,5.03-5.03,5.03s-5.03-2.26-5.03-5.03V91.17h-6.77v17.42l0,0
		c0,2.77-2.25,5.02-5.03,5.03c-2.78,0-5.03-2.26-5.03-5.03V79.94h-6.78v28.65c0,6.52,5.29,11.81,11.81,11.81
		c3.3,0,6.28-1.38,8.42-3.55c2.14,2.18,5.11,3.55,8.42,3.55c6.52,0,11.81-5.29,11.81-11.81V79.94h-6.79V79.95z"/>
	<path class="st0" d="M148.1,79.95v0.58v22.45c0,2.94-1.19,5.6-3.12,7.53s-4.58,3.12-7.53,3.12c-2.94,0-5.6-1.19-7.53-3.12
		c-1.93-1.93-3.12-4.59-3.12-7.53V79.95h-6.77v23.03c0,9.62,7.8,17.42,17.42,17.42c4.01,0,7.7-1.37,10.65-3.65v3.65h6.78V79.95
		H148.1z"/>
	<path class="st0" d="M227.27,79.95c-9.62,0-17.42,7.8-17.42,17.42v5.62c0,9.62,7.8,17.42,17.42,17.42c9.62,0,17.42-7.8,17.42-17.42
		v-5.62C244.69,87.75,236.89,79.95,227.27,79.95 M237.91,102.99c0,2.94-1.19,5.6-3.12,7.53s-4.58,3.12-7.53,3.12
		c-2.94,0-5.6-1.19-7.53-3.12c-1.92-1.93-3.12-4.59-3.12-7.53v-5.62c0-2.94,1.2-5.6,3.12-7.53c1.93-1.93,4.58-3.12,7.53-3.12
		c2.94,0,5.6,1.19,7.53,3.12s3.12,4.58,3.12,7.53V102.99z"/>
	<path class="st0" d="M210.43,124.85c-2.78,0-5.03-2.25-5.03-5.03V63.11h-6.77v56.71c0,6.52,5.29,11.81,11.81,11.81h0.58v-6.78
		H210.43z"/>
	<path class="st1" d="M157.1,12.6c-26.67,0-48.29,21.62-48.29,48.29v0.58h6.78v-0.58c0-11.47,4.64-21.84,12.16-29.36
		c7.51-7.52,17.89-12.16,29.35-12.16c11.47,0,21.84,4.64,29.36,12.16c7.51,7.51,12.16,17.89,12.16,29.36v0.58h6.77v-0.58
		C205.39,34.22,183.77,12.6,157.1,12.6"/>
	<path class="st1" d="M106.92,73.96c-4.12-2.03-7.87-4.71-11.09-7.93l0,0l0,0l-0.63-0.62l0,0l0,0c-8.68-8.37-20.5-13.52-33.51-13.52
		c-26.67,0-48.29,21.62-48.29,48.29c0,17.37,14.08,31.46,31.45,31.46h23.04v-6.78H44.84c-6.81,0-12.98-2.76-17.44-7.23
		c-4.47-4.47-7.23-10.63-7.23-17.45c0-11.46,4.65-21.84,12.16-29.36c7.51-7.51,17.89-12.16,29.36-12.16s21.84,4.65,29.36,12.16
		l0.43,0.42l0.41,0.4l0.02-0.02c4.2,4.01,9.11,7.28,14.54,9.57l0.81,0.34v-7.4L106.92,73.96z"/>
	<path class="st1" d="M258.14,51.89c-13.01,0-24.83,5.15-33.51,13.52l-0.64,0.62l0,0l0,0c-4.58,4.58-10.24,8.1-16.55,10.15
		l-0.4,0.13v7.06l0.74-0.21c7.66-2.16,14.54-6.18,20.15-11.52l0.02,0.02l0.83-0.82l0,0c7.52-7.51,17.89-12.16,29.36-12.16
		c11.47,0,21.84,4.65,29.35,12.16c7.52,7.52,12.16,17.89,12.16,29.36c0,6.82-2.76,12.98-7.23,17.45s-10.63,7.23-17.45,7.23h-62.32
		v6.78h62.32c17.37,0,31.45-14.08,31.45-31.45C306.43,73.51,284.8,51.89,258.14,51.89"/>
	<path class="st1" d="M202.36,130.59c-1.85-1.39-3.32-3.24-4.26-5.38l-0.15-0.35h-0.38h-74.73v6.78h80.9L202.36,130.59z"/>
	<path class="st1" d="M112.55,130.59c-1.84-1.39-3.32-3.24-4.26-5.38l-0.15-0.35h-0.38H77.94v6.78h36L112.55,130.59z"/>
	<path class="st2" d="M86.94,79.95c-4.01,0-7.7,1.37-10.64,3.65v-3.65h-6.78v17.42v5.62v39.87h4.44l-4.74,11.23h3.44h1.44
		l-5.76,13.22l20-20h-9.66l9.06-10.66l-0.45-0.42l-0.16-0.15h-6.36h-1.16H76.3v-19.32c2.94,2.28,6.63,3.64,10.64,3.64
		c9.62,0,17.42-7.8,17.42-17.42v-5.62C104.36,87.75,96.56,79.95,86.94,79.95 M86.94,113.63c-5.88,0-10.64-4.76-10.64-10.64v-5.62
		c0-2.94,1.19-5.6,3.12-7.53s4.58-3.12,7.53-3.12c2.94,0,5.6,1.19,7.53,3.12s3.12,4.58,3.12,7.53v5.62c0,2.94-1.19,5.6-3.12,7.53
		C92.54,112.44,89.88,113.63,86.94,113.63"/>
	<path class="st2" d="M157.11,23.82h-0.58v6.78h0.58c8.37,0,15.94,3.39,21.42,8.87c5.48,5.48,8.87,13.05,8.87,21.42V83.6
		c-2.94-2.28-6.64-3.64-10.65-3.64c-9.62,0-17.42,7.8-17.42,17.42v5.61l0,0c0,9.62,7.8,17.42,17.42,17.42
		c4.01,0,7.7-1.37,10.65-3.65v3.65h6.77v-17.42l0,0v-5.61V60.9C194.17,40.42,177.58,23.82,157.11,23.82 M187.39,102.98
		L187.39,102.98c0,2.95-1.19,5.6-3.12,7.53s-4.59,3.12-7.53,3.12s-5.6-1.19-7.53-3.12s-3.12-4.59-3.12-7.53l0,0v-5.61
		c0-2.94,1.19-5.6,3.12-7.53s4.59-3.12,7.53-3.12c5.88,0,10.64,4.76,10.65,10.64V102.98z"/>
</g>
</svg>
